<mxfile host="app.diagrams.net" modified="2024-01-18T03:31:37.951Z" agent="Mozilla/5.0 (X11; Linux x86_64) AppleWebKit/537.36 (KHTML, like Gecko) Chrome/119.0.0.0 Safari/537.36" version="22.1.21" etag="sIjSn4J2nRexxMr8u9S9" type="github">
  <diagram name="第 1 页" id="4i0rnW5zgPU5IOfJbg_z">
    <mxGraphModel>
      <root>
        <mxCell id="0" />
        <mxCell id="1" parent="0" />
      </root>
    </mxGraphModel>
  </diagram>
</mxfile>
